<svg xmlns="http://www.w3.org/2000/svg" xmlns:xlink="http://www.w3.org/1999/xlink" style="enable-background:new 0 0 110 110" width="110" height="110" version="1.0" viewBox="0 0 110 110" xml:space="preserve"><g id="Multicolor"><circle cx="55" cy="55" r="55" style="fill:#fabc3d"/><g><polygon points="87 43 83 43 75 47 75 63 83 67 87 67" style="fill:#f0f1f1"/><path d="M79,31c0,2.209-1.791,4-4,4H63v-8h12C77.209,27,79,28.791,79,31z" style="fill:#3e3e3f"/><rect style="fill:#f0f1f1" width="22" height="4" x="36" y="71"/><polygon points="61 87 55 75 39 75 33 87 39 87 44 77 44 87 50 87 50 77 55 87" style="fill:#3e3e3f"/><path d="M31.422,35.211C31.145,35.072,30.838,35,30.528,35H25c-1.104,0-2,0.896-2,2v32c0,1.104,0.896,2,2,2 h40c1.104,0,2-0.896,2-2v-6h8V47h-8v-6c0-1.104-0.896-2-2-2H42.07l4-6H63v-4H43.93l-6.232,9.349" style="fill:#3e3e3f"/><circle cx="59" cy="46" r="2" style="fill:#f79392"/><path d="M75,27H63v4h16C79,28.791,77.209,27,75,27z" style="fill:#5b5c5f"/><polygon points="75 47 75 55 87 55 87 43 83 43" style="fill:#fff"/><rect style="fill:#818284" width="18" height="3" x="43" y="62"/></g></g></svg>